<svg xmlns="http://www.w3.org/2000/svg" xmlns:xlink="http://www.w3.org/1999/xlink" width="52" height="52" viewBox="0 0 52 52">
  <defs>
    <filter id="Ellipse_15" x="0" y="0" width="52" height="52" filterUnits="userSpaceOnUse">
      <feOffset dy="3" input="SourceAlpha"/>
      <feGaussianBlur stdDeviation="3" result="blur"/>
      <feFlood flood-opacity="0.161"/>
      <feComposite operator="in" in2="blur"/>
      <feComposite in="SourceGraphic"/>
    </filter>
  </defs>
  <g id="Component_19_4" data-name="Component 19 – 4" transform="translate(9 6)">
    <g transform="matrix(1, 0, 0, 1, -9, -6)" filter="url(#Ellipse_15)">
      <g id="Ellipse_15-2" data-name="Ellipse 15" transform="translate(9 6)" fill="#282828" stroke="#707070" stroke-width="1">
        <circle cx="17" cy="17" r="17" stroke="none"/>
        <circle cx="17" cy="17" r="16.5" fill="none"/>
      </g>
    </g>
    <g id="Polygon_12" data-name="Polygon 12" transform="translate(27.5 8.5) rotate(90)" fill="#707070">
      <path d="M 16.23381042480469 14.49999809265137 L 1.766190052032471 14.49999809265137 C 1.50311005115509 14.49999809265137 1.374269962310791 14.32260799407959 1.331089973449707 14.24634742736816 C 1.287909984588623 14.17007732391357 1.20209002494812 13.96834754943848 1.337440013885498 13.74275779724121 L 8.571260452270508 1.686407804489136 C 8.702710151672363 1.467307806015015 8.91487979888916 1.443657755851746 9 1.443657755851746 C 9.08512020111084 1.443657755851746 9.297289848327637 1.467307806015015 9.428739547729492 1.686407804489136 L 16.66254997253418 13.74275779724121 C 16.79791069030762 13.96834754943848 16.71208953857422 14.17007732391357 16.66890907287598 14.24634742736816 C 16.62573051452637 14.32260799407959 16.49688911437988 14.49999809265137 16.23381042480469 14.49999809265137 Z" stroke="none"/>
      <path d="M 8.999845504760742 1.943916320800781 L 9 1.943657875061035 L 1.766189575195312 13.99999809265137 L 16.23381042480469 14.00000762939453 L 8.999845504760742 1.943916320800781 M 9 0.9436531066894531 C 9.331645011901855 0.9436531066894531 9.663290023803711 1.105487823486328 9.857489585876465 1.429158210754395 L 17.09130096435547 13.48550796508789 C 17.49122047424316 14.15202808380127 17.01110076904297 14.99999809265137 16.23381042480469 14.99999809265137 L 1.766189575195312 14.99999809265137 C 0.9888992309570312 14.99999809265137 0.5087795257568359 14.15202808380127 0.9087009429931641 13.48550796508789 L 8.142510414123535 1.429158210754395 C 8.336709976196289 1.105487823486328 8.668354988098145 0.9436531066894531 9 0.9436531066894531 Z" stroke="none" fill="#707070"/>
    </g>
  </g>
</svg>
