<svg xmlns="http://www.w3.org/2000/svg" width="97.927" height="168.289" viewBox="0 0 97.927 168.289">
  <g id="microphoneclear" transform="translate(1.009 1.037)">
    <g id="microphoneclear-2" data-name="microphoneclear" transform="translate(-157.465 -131.155)" opacity="0.739">
      <path id="Path_2265" data-name="Path 2265" d="M164.574,293.886" transform="translate(0.258 4.521)" fill="none" stroke="#1bff17" stroke-miterlimit="10" stroke-width="2"/>
      <path id="Path_2266" data-name="Path 2266" d="M180.795,240.7s-21.816-5.732-23.33-24.557l17.19-72.444s6.564-19.559,51.571-9.823c0,0,29.394,9.7,27.013,27.013l-13.507,73.672s-4.791,11.7-22.1,11.051l-1.228,8.6s-8.386-9.37-11.051,4.911c0,0-.065,8.162,4.911,8.6,0,0-8.525,3.306-9.823-8.6L202.9,240.7h-2.456s-6.933,27.016,0,27.013H183.25S173.87,267.095,180.795,240.7Z" transform="translate(0)" fill="#e6e6e6" stroke="#000" stroke-miterlimit="10" stroke-width="2"/>
      <path id="Path_2267" data-name="Path 2267" d="M179.388,147.345h36.836l18.418,9.823v6.139L215,153.484H178.16l-2.456,7.367h38.064l18.418,8.6-1.228,7.367-18.418-9.823s-38.28-1.876-38.064-1.228-1.228,7.367-1.228,7.367h38.064l17.19,9.823v6.139l-18.418-9.823H172.021l-1.228,7.367h38.064l17.19,9.823-1.228,6.139-17.19-9.823H168.337v6.139H206.4l17.19,9.823-1.228,7.367-17.19-9.823H165.881l-2.456,7.367h41.748l29.469,18.418v-8.6l-4.911-2.456v-8.6l7.367,3.684v-6.139l-4.911-2.456v-8.6l8.6,3.684v-4.911l-4.911-2.456v-8.6l7.367,3.684v-6.139l-4.911-3.684v-8.6l7.367,4.911V171.9l-4.911-3.684v-8.6l7.367,3.684s5.223-18.141-30.7-27.013C217.452,136.294,185.446,130.252,179.388,147.345Z" transform="translate(0.179 0.034)" fill="#999" stroke="#000" stroke-miterlimit="10" stroke-width="2"/>
    </g>
  </g>
</svg>
