<svg xmlns="http://www.w3.org/2000/svg" xmlns:xlink="http://www.w3.org/1999/xlink" width="76" height="76" viewBox="0 0 76 76">
  <defs>
    <radialGradient id="radial-gradient" cx="0.783" cy="0.783" r="0.603" gradientTransform="translate(0.044 -0.04) rotate(4.841)" gradientUnits="objectBoundingBox">
      <stop offset="0" stop-color="#24883d"/>
      <stop offset="1" stop-color="#12441f"/>
    </radialGradient>
    <filter id="Path_2386" x="0" y="0" width="76" height="76" filterUnits="userSpaceOnUse">
      <feOffset dy="3" input="SourceAlpha"/>
      <feGaussianBlur stdDeviation="3" result="blur"/>
      <feFlood flood-opacity="0.161"/>
      <feComposite operator="in" in2="blur"/>
      <feComposite in="SourceGraphic"/>
    </filter>
    <filter id="Ellipse_15" x="12" y="12" width="52" height="52" filterUnits="userSpaceOnUse">
      <feOffset dy="3" input="SourceAlpha"/>
      <feGaussianBlur stdDeviation="3" result="blur-2"/>
      <feFlood flood-opacity="0.161"/>
      <feComposite operator="in" in2="blur-2"/>
      <feComposite in="SourceGraphic"/>
    </filter>
  </defs>
  <g id="play2" transform="translate(9 6)">
    <g id="pla2">
      <g transform="matrix(1, 0, 0, 1, -9, -6)" filter="url(#Path_2386)">
        <g id="Path_2386-2" data-name="Path 2386" transform="translate(9 6)" fill="url(#radial-gradient)">
          <path d="M 29 57.5 C 25.15229988098145 57.5 21.41996955871582 56.74652862548828 17.90666961669922 55.26052856445312 C 14.51296997070312 53.82511901855469 11.46500968933105 51.77009963989258 8.84745979309082 49.15253829956055 C 6.229899883270264 46.53498840332031 4.174880027770996 43.48703002929688 2.7394700050354 40.09333038330078 C 1.253469944000244 36.58002853393555 0.5 32.84769821166992 0.5 29 C 0.5 25.15229988098145 1.253469944000244 21.41996955871582 2.7394700050354 17.90666961669922 C 4.174880027770996 14.51296997070312 6.229899883270264 11.46500968933105 8.84745979309082 8.84745979309082 C 11.46500968933105 6.229899883270264 14.51296997070312 4.174880027770996 17.90666961669922 2.7394700050354 C 21.41996955871582 1.253469944000244 25.15229988098145 0.5 29 0.5 C 32.84769821166992 0.5 36.58002853393555 1.253469944000244 40.09333038330078 2.7394700050354 C 43.48703002929688 4.174880027770996 46.53498840332031 6.229899883270264 49.15253829956055 8.84745979309082 C 51.77009963989258 11.46500968933105 53.82511901855469 14.51296997070312 55.26052856445312 17.90666961669922 C 56.74652862548828 21.41996955871582 57.5 25.15229988098145 57.5 29 C 57.5 32.84769821166992 56.74652862548828 36.58002853393555 55.26052856445312 40.09333038330078 C 53.82511901855469 43.48703002929688 51.77009963989258 46.53498840332031 49.15253829956055 49.15253829956055 C 46.53498840332031 51.77009963989258 43.48703002929688 53.82511901855469 40.09333038330078 55.26052856445312 C 36.58002853393555 56.74652862548828 32.84769821166992 57.5 29 57.5 Z" stroke="none"/>
          <path d="M 29 1 C 25.21958160400391 1 21.55278015136719 1.740180969238281 18.1014404296875 3.199970245361328 C 14.76734161376953 4.61016845703125 11.77280044555664 6.629219055175781 9.201011657714844 9.201011657714844 C 6.629219055175781 11.77280044555664 4.61016845703125 14.76734161376953 3.199970245361328 18.1014404296875 C 1.740180969238281 21.55278015136719 1 25.21958160400391 1 29 C 1 32.78041839599609 1.740180969238281 36.44721984863281 3.199970245361328 39.8985595703125 C 4.61016845703125 43.23265838623047 6.629219055175781 46.22719955444336 9.201011657714844 48.79898834228516 C 11.77280044555664 51.37078094482422 14.76734161376953 53.38983154296875 18.1014404296875 54.80002975463867 C 21.55278015136719 56.25981903076172 25.21958160400391 57 29 57 C 32.78041839599609 57 36.44721984863281 56.25981903076172 39.8985595703125 54.80002975463867 C 43.23265838623047 53.38983154296875 46.22719955444336 51.37078094482422 48.79898834228516 48.79898834228516 C 51.37078094482422 46.22719955444336 53.38983154296875 43.23265838623047 54.80002975463867 39.8985595703125 C 56.25981903076172 36.44721984863281 57 32.78041839599609 57 29 C 57 25.21958160400391 56.25981903076172 21.55278015136719 54.80002975463867 18.1014404296875 C 53.38983154296875 14.76734161376953 51.37078094482422 11.77280044555664 48.79898834228516 9.201011657714844 C 46.22719955444336 6.629219055175781 43.23265838623047 4.61016845703125 39.8985595703125 3.199970245361328 C 36.44721984863281 1.740180969238281 32.78041839599609 1 29 1 M 29 0 C 45.01625823974609 0 58 12.98374176025391 58 29 C 58 45.01625823974609 45.01625823974609 58 29 58 C 12.98374176025391 58 0 45.01625823974609 0 29 C 0 12.98374176025391 12.98374176025391 0 29 0 Z" stroke="none" fill="#707070"/>
        </g>
      </g>
    </g>
    <g id="Component_19_4" data-name="Component 19 – 4" transform="translate(12 12)">
      <g transform="matrix(1, 0, 0, 1, -21, -18)" filter="url(#Ellipse_15)">
        <g id="Ellipse_15-2" data-name="Ellipse 15" transform="translate(21 18)" fill="#282828" stroke="#707070" stroke-width="1">
          <circle cx="17" cy="17" r="17" stroke="none"/>
          <circle cx="17" cy="17" r="16.5" fill="none"/>
        </g>
      </g>
      <g id="Polygon_12" data-name="Polygon 12" transform="translate(27.5 8.5) rotate(90)" fill="#707070">
        <path d="M 16.23381042480469 14.49999809265137 L 1.766190052032471 14.49999809265137 C 1.50311005115509 14.49999809265137 1.374269962310791 14.32260799407959 1.331089973449707 14.24634742736816 C 1.287909984588623 14.17007732391357 1.20209002494812 13.96834754943848 1.337440013885498 13.74275779724121 L 8.571260452270508 1.686407804489136 C 8.702710151672363 1.467307806015015 8.91487979888916 1.443657755851746 9 1.443657755851746 C 9.08512020111084 1.443657755851746 9.297289848327637 1.467307806015015 9.428739547729492 1.686407804489136 L 16.66254997253418 13.74275779724121 C 16.79791069030762 13.96834754943848 16.71208953857422 14.17007732391357 16.66890907287598 14.24634742736816 C 16.62573051452637 14.32260799407959 16.49688911437988 14.49999809265137 16.23381042480469 14.49999809265137 Z" stroke="none"/>
        <path d="M 8.999845504760742 1.943916320800781 L 9 1.943657875061035 L 1.766189575195312 13.99999809265137 L 16.23381042480469 14.00000762939453 L 8.999845504760742 1.943916320800781 M 9 0.9436531066894531 C 9.331645011901855 0.9436531066894531 9.663290023803711 1.105487823486328 9.857489585876465 1.429158210754395 L 17.09130096435547 13.48550796508789 C 17.49122047424316 14.15202808380127 17.01110076904297 14.99999809265137 16.23381042480469 14.99999809265137 L 1.766189575195312 14.99999809265137 C 0.9888992309570312 14.99999809265137 0.5087795257568359 14.15202808380127 0.9087009429931641 13.48550796508789 L 8.142510414123535 1.429158210754395 C 8.336709976196289 1.105487823486328 8.668354988098145 0.9436531066894531 9 0.9436531066894531 Z" stroke="none" fill="#707070"/>
      </g>
    </g>
  </g>
</svg>
