<svg xmlns="http://www.w3.org/2000/svg" width="88.255" height="140.047" viewBox="0 0 88.255 140.047">
  <g id="sonicyouthwashingmachine" transform="translate(-86.532 -178.327)" opacity="0.736">
    <path id="Path_2332" data-name="Path 2332" d="M90.536,179.341l-3,108,10,30s71.19-4.511,73-7v-9s2.453.394,2-3v-83s1.905-.284,1-3v-2l-18-14v-17Z" transform="translate(0 -0.015)" fill="#fff" stroke="#000" stroke-miterlimit="10" stroke-width="2"/>
    <path id="Path_2331" data-name="Path 2331" d="M90.111,194.327v-15h66v14" transform="translate(-0.574)" stroke="#000" stroke-miterlimit="10" stroke-width="2"/>
    <line id="Line_110" data-name="Line 110" y2="1" transform="translate(100.536 315.327)" fill="none" stroke="#000" stroke-miterlimit="10" stroke-width="2"/>
    <path id="Path_2333" data-name="Path 2333" d="M156.163,202.6l-5-2-55,2-3,3-3-1" transform="translate(-0.627 -6.278)" fill="rgba(0,0,0,0)" stroke="#000" stroke-miterlimit="10" stroke-width="2"/>
    <line id="Line_111" data-name="Line 111" y2="71" transform="translate(95.536 222.327)" fill="none" stroke="#000" stroke-miterlimit="10" stroke-width="2"/>
    <line id="Line_112" data-name="Line 112" y2="66" transform="translate(90.536 216.327)" fill="none" stroke="#000" stroke-miterlimit="10" stroke-width="2"/>
    <path id="Path_2334" data-name="Path 2334" d="M105.368,329.657v-98l72-2" transform="translate(-4.832 -14.331)" fill="#fff" stroke="#000" stroke-miterlimit="10" stroke-width="2"/>
    <path id="Path_2335" data-name="Path 2335" d="M90.163,211.3l11,14v-4l-11-14" transform="translate(-0.627 -7.975)" fill="rgba(0,0,0,0)" stroke="#000" stroke-miterlimit="10" stroke-width="2"/>
    <line id="Line_113" data-name="Line 113" y1="7" x2="72" transform="translate(100.536 300.327)" fill="none" stroke="#000" stroke-miterlimit="10" stroke-width="2"/>
    <line id="Line_114" data-name="Line 114" x1="73" y2="3" transform="translate(100.536 210.327)" fill="none" stroke="#000" stroke-miterlimit="10" stroke-width="2"/>
    <path id="Path_2336" data-name="Path 2336" d="M106.994,208.3l7,10,22-1h11l19-1-12-9Z" transform="translate(-5.458 -7.975)" fill="rgba(0,0,0,0)" stroke="#000" stroke-miterlimit="10" stroke-width="2"/>
    <path id="Path_2337" data-name="Path 2337" d="M161.474,222.778" transform="translate(-20.937 -12.452)" fill="rgba(0,0,0,0)" stroke="#000" stroke-miterlimit="10" stroke-width="2"/>
    <path id="Path_2338" data-name="Path 2338" d="M124.713,189.473h-3a1.652,1.652,0,0,0,0,3c2.263,1.584,1.868-.226,3,0" transform="translate(-9.176 -3.146)" fill="#fff" stroke="#fff" stroke-miterlimit="10" stroke-width="2"/>
    <path id="Path_2339" data-name="Path 2339" d="M161.474,187.757" transform="translate(-20.937 -2.431)" fill="rgba(0,0,0,0)" stroke="#000" stroke-miterlimit="10" stroke-width="2"/>
    <path id="Path_2340" data-name="Path 2340" d="M105.972,191.327s1.263-3.358-1-2S104.162,192.56,105.972,191.327Z" transform="translate(-4.436 -3)" fill="#fff" stroke="#fff" stroke-miterlimit="10" stroke-width="2"/>
    <path id="Path_2341" data-name="Path 2341" d="M168.084,193.627" transform="translate(-22.548 -4.301)" fill="rgba(0,0,0,0)" stroke="#000" stroke-miterlimit="10" stroke-width="2"/>
    <path id="Path_2343" data-name="Path 2343" d="M161.065,183.728s-7.657,7-2,7,6-2,6-2" transform="translate(-19.528 -1.402)" fill="rgba(0,0,0,0)" stroke="#fff" stroke-miterlimit="10" stroke-width="2"/>
    <path id="Path_2344" data-name="Path 2344" d="M93.2,205.6l-3-1,3,1,3-3,55-2,5,2-63,3v3" transform="translate(-0.664 -6.278)" fill="rgba(0,0,0,0)" stroke="#000" stroke-miterlimit="10" stroke-width="2"/>
    <path id="Path_2345" data-name="Path 2345" d="M92.7,180.938h62l-62,1,1,11-1-7-1-5,3,12" transform="translate(-1.163 -0.611)" stroke="#fff" stroke-miterlimit="10" stroke-width="2"/>
    <path id="Path_2346" data-name="Path 2346" d="M179.395,189.473" transform="translate(-25.858 -3.146)" stroke="#fff" stroke-miterlimit="10" stroke-width="2"/>
    <path id="Path_2347" data-name="Path 2347" d="M179.395,193.627v3" transform="translate(-25.859 -4.301)" stroke="#fff" stroke-miterlimit="10" stroke-width="2"/>
    <path id="Path_2348" data-name="Path 2348" d="M178.1,189.415v-7h0v1l1,4" transform="translate(-25.56 -1.088)" stroke="#fff" stroke-miterlimit="10" stroke-width="2"/>
    <path id="Path_2349" data-name="Path 2349" d="M99.727,197.566a5.713,5.713,0,0,0,1,0c.76-.051,1.77.078,3,0,3.753-.237,8.281-.188,8,0-.453.3-4,0-4,0s-8.5.157-6,0,8,0,8,0h3c1.056,0-.923-.271,3,0" transform="translate(-3.191 -5.24)" stroke="#fff" stroke-miterlimit="10" stroke-width="2"/>
  </g>
</svg>
