<svg xmlns="http://www.w3.org/2000/svg" width="253" height="255.28" viewBox="0 0 253 255.28">
  <g id="Group_129" data-name="Group 129" transform="translate(-16.608 -23.183)">
    <g id="Component_62_1" data-name="Component 62 1" transform="translate(25.428 24.287)" opacity="0.738">
      <g id="chickenhawk">
        <g id="chickenhawk-2">
          <path id="Path_2360" data-name="Path 2360" d="M112.77,79.533,86.309,42.294,74.877,28.018,62.449,24.287C34.12,45.864,20.4,91.607,20.4,91.607L40.084,127.3l26.342,23.357" transform="translate(-20.398 -24.287)" fill="#b3b3b3" stroke="#000" stroke-miterlimit="10" stroke-width="2"/>
          <path id="Path_2352" data-name="Path 2352" d="M56.415,51.572a60.278,60.278,0,0,1,34.493-11.1c39.924,0,72.29,41.1,72.29,91.811a111.633,111.633,0,0,1-8.495,43.215" transform="translate(27.406 8.691)" fill="gray" stroke="#000" stroke-miterlimit="10" stroke-width="2"/>
          <path id="Path_2350" data-name="Path 2350" d="M54.413,63.958" transform="translate(24.749 56.569)" fill="#b3b3b3" stroke="#000" stroke-miterlimit="10" stroke-width="2"/>
          <path id="Path_2351" data-name="Path 2351" d="M91.239,93.806" transform="translate(73.627 117.405)" fill="#b3b3b3" stroke="#000" stroke-miterlimit="10" stroke-width="2"/>
          <path id="Path_2353" data-name="Path 2353" d="M56.415,44.121" transform="translate(27.406 16.138)" fill="#b3b3b3" stroke="#000" stroke-miterlimit="10" stroke-width="2"/>
          <path id="Path_2354" data-name="Path 2354" d="M42.892,58.307" transform="translate(9.458 45.052)" fill="#b3b3b3" stroke="#000" stroke-miterlimit="10" stroke-width="2"/>
          <path id="Path_2355" data-name="Path 2355" d="M151.676,164.31c-11.748,9.628-25.344,14.714-39.215,14.671-39.922,0-72.285-41.106-72.285-91.814A115.343,115.343,0,0,1,42.794,62.6" transform="translate(5.853 53.798)" fill="gray" stroke="#000" stroke-miterlimit="10" stroke-width="2"/>
          <path id="Path_2356" data-name="Path 2356" d="M88.086,96.076" transform="translate(69.442 122.032)" fill="#b3b3b3" stroke="#000" stroke-miterlimit="10" stroke-width="2"/>
          <path id="Path_2357" data-name="Path 2357" d="M51.811,143.169s22.691,35.316,51.733,17.8l32.682,28.8,40.6,34.623,13.314-17.384-28.225-49.644-28.828-39.87c9.94-49.963-22.682-67.387-22.682-67.387" transform="translate(21.296 28.339)" fill="#b3b3b3" stroke="#000" stroke-miterlimit="10" stroke-width="2"/>
          <path id="Path_2358" data-name="Path 2358" d="M98.263,71.4,66.339,30.214C41.489,43.19,26.08,87.313,26.08,87.313l35.288,33.022" transform="translate(-12.856 -12.207)" fill="#b3b3b3" stroke="#000" stroke-miterlimit="10" stroke-width="2"/>
          <path id="Path_2359" data-name="Path 2359" d="M183.122,219.921l-60.465-86.269-1.559-3.245S136.507,51.245,70.4,55.14L57.1,43.771" transform="translate(28.31 15.425)" fill="#b3b3b3" stroke="#000" stroke-miterlimit="10" stroke-width="2"/>
          <path id="Path_2361" data-name="Path 2361" d="M41.3,62.6l11.3,9.971s2.984,84.355,63.618,51.907l76.23,72.266" transform="translate(7.347 53.798)" fill="#b3b3b3" stroke="#000" stroke-miterlimit="10" stroke-width="2"/>
          <line id="Line_119" data-name="Line 119" x2="40.477" y2="34.256" transform="translate(8.173 82.138)" fill="none" stroke="#000" stroke-miterlimit="10" stroke-width="2"/>
          <path id="Path_2362" data-name="Path 2362" d="M151.029,159.741l-63.988-80.7c-12.109-11.688-7.273,8.434-7.273,8.434l64.8,76.565,1.585,2.069" transform="translate(57.136 79.873)" fill="gray" stroke="#000" stroke-miterlimit="10" stroke-width="2"/>
          <path id="Path_2368" data-name="Path 2368" d="M48.827,71.763l-1.96-6.04" transform="translate(14.734 60.167)" fill="#b3b3b3" stroke="#707070" stroke-width="1"/>
        </g>
      </g>
      <path id="Path_2364" data-name="Path 2364" d="M48.573,103.314,84.4,141.535,117.677,88.78,81.941,50.28Z" transform="translate(16.998 28.691)" fill="#b3b3b3"/>
      <path id="Path_2365" data-name="Path 2365" d="M43.106,96.966l16.677,14.222L93.149,61.428,75.955,45.481Z" transform="translate(9.742 18.91)" fill="#b3b3b3" stroke="#b3b3b3" stroke-width="2"/>
      <path id="Path_2366" data-name="Path 2366" d="M53.865,78.356l-6.06-5.1-.852-10.612" transform="translate(14.848 53.901)" fill="#b3b3b3" stroke="#b3b3b3" stroke-width="2"/>
      <path id="Path_2367" data-name="Path 2367" d="M47.262,66.635l5.9,4.509" transform="translate(15.258 62.026)" fill="#b3b3b3" stroke="#b3b3b3" stroke-width="2"/>
    </g>
    <text id="Rock_Almanac" data-name="Rock Almanac" transform="translate(16.608 150.641)" fill="#a20d00" font-size="41" font-family="HoeflerText-Regular, Hoefler Text"><tspan x="0" y="0">Rock Almanac</tspan></text>
  </g>
</svg>
