<?xml version="1.0" encoding="utf-8"?>
<!-- Generator: Adobe Illustrator 24.1.0, SVG Export Plug-In . SVG Version: 6.00 Build 0)  -->
<svg version="1.1" id="Layer_1" xmlns="http://www.w3.org/2000/svg" xmlns:xlink="http://www.w3.org/1999/xlink" x="0px" y="0px"
	 viewBox="0 0 144.1 132.1" style="enable-background:new 0 0 144.1 132.1;" xml:space="preserve">
<style type="text/css">
	.st0{opacity:0.738;}
	.st1{fill:#B3B3B3;stroke:#000000;stroke-width:2;stroke-miterlimit:10;}
	.st2{fill:#808080;stroke:#000000;stroke-width:2;stroke-miterlimit:10;}
	.st3{fill:none;stroke:#000000;stroke-width:2;stroke-miterlimit:10;}
	.st4{fill:#B3B3B3;stroke:#707070;}
	.st5{fill:#B3B3B3;}
	.st6{fill:#B3B3B3;stroke:#B3B3B3;stroke-width:2;}
	.st7{fill:#A20D00;}
	.st8{font-family:'HoeflerText-Regular';}
	.st9{font-size:17.8387px;}
</style>
<g id="Component_62_1" transform="translate(1.13 1.063)" class="st0">
	<g id="chickenhawk">
		<g id="chickenhawk-2" transform="translate(0 129.728) rotate(-90)">
			<path id="Path_2360" class="st1" d="M88.3,59l12.3-11.4l4.7-4.9l1.2-5.3c-7.1-12.2-22.2-18.1-22.2-18.1l-11.7,8.5L64.9,39"/>
			<path id="Path_2352" class="st2" d="M86.7,55.3c2.4,4.6,3.7,9.7,3.7,14.8c0,17.2-13.5,31.1-30.2,31.1c-5,0-9.9-1.3-14.2-3.6"/>
			<path id="Path_2350" class="st1" d="M66.8,53.3"/>
			<path id="Path_2351" class="st1" d="M37,90.1"/>
			<path id="Path_2353" class="st1" d="M86.7,55.3"/>
			<path id="Path_2354" class="st1" d="M72.5,41.8"/>
			<path id="Path_2355" class="st2" d="M34.7,87c-3.2-5-4.8-10.9-4.8-16.8C29.9,53,43.4,39,60.1,39c2.7,0,5.5,0.4,8.1,1.1"/>
			<path id="Path_2356" class="st1" d="M34.7,87"/>
			<path id="Path_2357" class="st1" d="M50.1,50.7c0,0-11.6,9.8-5.9,22.2l-9.5,14l-11.4,17.4l5.7,5.7L45.4,98l13.1-12.4
				c16.4,4.3,22.2-9.7,22.2-9.7"/>
			<path id="Path_2358" class="st1" d="M87,56l13.6-13.7C96.3,31.6,81.8,25,81.8,25L70.9,40.1"/>
			<path id="Path_2359" class="st1" d="M29,110.1l28.4-26l1.1-0.7c0,0,26.1,6.6,24.8-21.8L87,56"/>
			<path id="Path_2361" class="st1" d="M68.2,40.2L64.9,45c0,0-27.8,1.3-17.1,27.3L24,105.1"/>
			<line id="Line_119" class="st3" x1="79.5" y1="22.8" x2="68.2" y2="40.2"/>
			<path id="Path_2362" class="st2" d="M27.6,108.7l26.6-27.5c3.8-5.2-2.8-3.1-2.8-3.1l-25.2,27.8l-0.7,0.7"/>
			<path id="Path_2368" class="st4" d="M63.1,46.6l2-0.8"/>
		</g>
	</g>
	<path id="Path_2364" class="st5" d="M47.4,66.7l15.4,12.6l14.3-17.4L61.8,49.2L47.4,66.7z"/>
	<path id="Path_2365" class="st6" d="M42,61.4l7.2,4.7l14.3-16.4l-7.4-5.2L42,61.4z"/>
	<path id="Path_2366" class="st6" d="M48.8,66.8l-2.6-1.7l-0.4-3.5"/>
	<path id="Path_2367" class="st6" d="M46.1,65.6l2.5,1.5"/>
</g>
<text transform="matrix(1 0 0 1 16.6081 69.0014)" class="st7 st8 st9">Rock Almanac</text>
</svg>
