<svg xmlns="http://www.w3.org/2000/svg" width="144.131" height="132.073" viewBox="0 0 144.131 132.073">
  <g id="Component_62_1" data-name="Component 62 – 1" transform="translate(1.13 1.063)" opacity="0.738">
    <g id="chickenhawk">
      <g id="chickenhawk-2" data-name="chickenhawk" transform="translate(0 129.728) rotate(-90)">
        <path id="Path_2360" data-name="Path 2360" d="M36.507,61.9,55.622,44.167l7.328-7.66,1.915-8.327C53.79,9.195,30.309,0,30.309,0L11.99,13.192,0,30.844" transform="translate(64.864)" fill="#b3b3b3" stroke="#000" stroke-miterlimit="10" stroke-width="2"/>
        <path id="Path_2352" data-name="Path 2352" d="M63.611,0a49.292,49.292,0,0,1,5.7,23.114c0,26.753-21.1,48.441-47.128,48.441A45.916,45.916,0,0,1,0,65.864" transform="translate(35.186 56.17)" fill="gray" stroke="#000" stroke-miterlimit="10" stroke-width="2"/>
        <path id="Path_2350" data-name="Path 2350" d="M0,0" transform="translate(67.862 53.048)" fill="#b3b3b3" stroke="#000" stroke-miterlimit="10" stroke-width="2"/>
        <path id="Path_2351" data-name="Path 2351" d="M0,0" transform="translate(21.313 110.479)" fill="#b3b3b3" stroke="#000" stroke-miterlimit="10" stroke-width="2"/>
        <path id="Path_2353" data-name="Path 2353" d="M0,0" transform="translate(98.798 56.17)" fill="#b3b3b3" stroke="#000" stroke-miterlimit="10" stroke-width="2"/>
        <path id="Path_2354" data-name="Path 2354" d="M0,0" transform="translate(76.675 35.081)" fill="#b3b3b3" stroke="#000" stroke-miterlimit="10" stroke-width="2"/>
        <path id="Path_2355" data-name="Path 2355" d="M7.53,74.717A49.189,49.189,0,0,1,0,48.44C0,21.687,21.1,0,47.128,0A45.975,45.975,0,0,1,59.741,1.755" transform="translate(10.242 30.844)" fill="gray" stroke="#000" stroke-miterlimit="10" stroke-width="2"/>
        <path id="Path_2356" data-name="Path 2356" d="M0,0" transform="translate(17.772 105.561)" fill="#b3b3b3" stroke="#000" stroke-miterlimit="10" stroke-width="2"/>
        <path id="Path_2357" data-name="Path 2357" d="M41.693,0S23.565,15.206,32.557,34.668l-14.784,21.9L0,83.772l8.923,8.922L34.407,73.78,54.872,54.463c25.646,6.661,34.59-15.2,34.59-15.2" transform="translate(0 48.989)" fill="#b3b3b3" stroke="#000" stroke-miterlimit="10" stroke-width="2"/>
        <path id="Path_2358" data-name="Path 2358" d="M25.117,48.37,46.26,26.978C39.6,10.325,16.951,0,16.951,0L0,23.647" transform="translate(74.226 8.862)" fill="#b3b3b3" stroke="#000" stroke-miterlimit="10" stroke-width="2"/>
        <path id="Path_2359" data-name="Path 2359" d="M0,84.452,44.284,43.933l1.665-1.044S86.584,53.214,84.585,8.916L90.42,0" transform="translate(8.923 57.232)" fill="#b3b3b3" stroke="#000" stroke-miterlimit="10" stroke-width="2"/>
        <path id="Path_2361" data-name="Path 2361" d="M68.858,0,63.74,7.569s-43.3,2-26.645,42.632L0,101.284" transform="translate(1.124 32.601)" fill="#b3b3b3" stroke="#000" stroke-miterlimit="10" stroke-width="2"/>
        <line id="Line_119" data-name="Line 119" x1="17.584" y2="27.124" transform="translate(69.983 5.477)" fill="none" stroke="#000" stroke-miterlimit="10" stroke-width="2"/>
        <path id="Path_2362" data-name="Path 2362" d="M3.269,48.392,44.693,5.513c6-8.115-4.33-4.874-4.33-4.874L1.062,44.062,0,45.124" transform="translate(3.464 91.102)" fill="gray" stroke="#000" stroke-miterlimit="10" stroke-width="2"/>
        <path id="Path_2368" data-name="Path 2368" d="M0,1.314,3.1,0" transform="translate(62.009 41.279)" fill="#b3b3b3" stroke="#707070" stroke-width="1"/>
      </g>
    </g>
    <path id="Path_2364" data-name="Path 2364" d="M19.618,0,0,24.007l27.079,22.3L46.841,22.361Z" transform="translate(43.94 87.377) rotate(-90)" fill="#b3b3b3"/>
    <path id="Path_2365" data-name="Path 2365" d="M7.3,0,0,11.175,25.542,33.534l8.186-11.522Z" transform="translate(35.414 66.779) rotate(-90)" fill="#b3b3b3" stroke="#b3b3b3" stroke-width="2"/>
    <path id="Path_2366" data-name="Path 2366" d="M0,4.632,2.615.57,8.063,0" transform="translate(41.414 67.888) rotate(-90)" fill="#b3b3b3" stroke="#b3b3b3" stroke-width="2"/>
    <path id="Path_2367" data-name="Path 2367" d="M2.315,0,0,3.951" transform="translate(41.896 68.356) rotate(-90)" fill="#b3b3b3" stroke="#b3b3b3" stroke-width="2"/>
  </g>
</svg>
