<svg xmlns="http://www.w3.org/2000/svg" width="128.182" height="136" viewBox="0 0 128.182 136">
  <g id="CowboyBoot" transform="translate(-77.15 -147.063)" opacity="0.738">
    <path id="Path_2209" data-name="Path 2209" d="M155.332,148.063h-3v4s-20.538,2.156-32,18l9,55s-5.831,35.371-21,32c0,0-3.909.383-12-4s-19.686,5.652-18,7-3.181,3.224,13,13c0,0,14.527,9.359,27,7,0,0,17.567-.46,23-4v6h35l8-18-3-19,3-42,2-40s-11.356-7.491-23-10a43.073,43.073,0,0,0-5-1v-4Z" transform="translate(0)" fill="#8c6239" stroke="#ff0" stroke-miterlimit="10" stroke-width="2"/>
    <path id="Path_2210" data-name="Path 2210" d="M144.319,158.324v14h4v67s-15.977-6.124-18-10l-8-57S130.328,160.347,144.319,158.324Z" transform="translate(3.013 0.739)" fill="#8c6239" stroke="#ff0" stroke-miterlimit="10" stroke-width="2"/>
    <path id="Path_2211" data-name="Path 2211" d="M157.3,158.324v14h-5v69s5.336,3.359,20,1l3-76S169.271,159.335,157.3,158.324Z" transform="translate(5.027 0.739)" fill="#8c6239" stroke="#ff0" stroke-miterlimit="10" stroke-width="2"/>
    <path id="Path_2212" data-name="Path 2212" d="M173.021,248.453s-30.156,3.985-46-10l3-8s15.358,14.7,43,12Z" transform="translate(3.311 5.61)" fill="#8c6239" stroke="#ff0" stroke-miterlimit="10" stroke-width="2"/>
    <path id="Path_2213" data-name="Path 2213" d="M126.686,241.685s10.941,10.157,31,11v9s-15.169-.651-15-2c0,0-27.021,16.913-55-5l5-1S115.73,266.463,126.686,241.685Z" transform="translate(0.646 6.378)" fill="#8c6239" stroke="#ff0" stroke-miterlimit="10" stroke-width="2"/>
    <path id="Path_2214" data-name="Path 2214" d="M172.857,252.035v5c-2.359,3.034-14,4-14,4v-9Z" transform="translate(5.475 7.028)" fill="#8c6239" stroke="#ff0" stroke-miterlimit="10" stroke-width="2"/>
    <path id="Path_2215" data-name="Path 2215" d="M142.955,265.236v4h25l4-6h-29Z" transform="translate(4.377 7.827)" fill="#8c6239" stroke="#ff0" stroke-miterlimit="10" stroke-width="2"/>
    <circle id="Ellipse_91" data-name="Ellipse 91" cx="2" cy="2" r="2" transform="translate(194.332 249.063)" fill="#8c6239" stroke="#ff0" stroke-miterlimit="10" stroke-width="2"/>
    <line id="Line_87" data-name="Line 87" x2="7" transform="translate(181.332 249.063)" fill="#8c6239" stroke="#ff0" stroke-miterlimit="10" stroke-width="2"/>
    <line id="Line_88" data-name="Line 88" x2="6" transform="translate(182.332 254.063)" fill="#8c6239" stroke="#ff0" stroke-miterlimit="10" stroke-width="2"/>
    <ellipse id="Ellipse_92" data-name="Ellipse 92" cx="8" cy="8.5" rx="8" ry="8.5" transform="translate(188.332 243.063)" fill="#8c6239" stroke="#ff0" stroke-miterlimit="10" stroke-width="2"/>
    <circle id="Ellipse_93" data-name="Ellipse 93" cx="2" cy="2" r="2" transform="translate(194.332 249.063)" fill="#8c6239" stroke="#ff0" stroke-miterlimit="10" stroke-width="2"/>
  </g>
</svg>
