<svg xmlns="http://www.w3.org/2000/svg" width="84.208" height="148.576" viewBox="0 0 84.208 148.576">
  <g id="devil_horns" data-name="devil horns" transform="translate(-67.508 -75.301)" opacity="0.999">
    <path id="Path_2268" data-name="Path 2268" stroke="#000" d="M78.041,77.081c-2.085-.426-3.806-.891-6,1a9.653,9.653,0,0,0-3,8c.8,11.825,3,52,3,52a199.175,199.175,0,0,0,1,38,32.812,32.812,0,0,0,7,16c2.188,2.749,4.621,8.244,4,18a8.707,8.707,0,0,0,6,9c7.241,2.5,19.1,5.453,31,1,4.013-1.5,6.693-5.726,7-10a47.019,47.019,0,0,1,6-19,21.457,21.457,0,0,0,2-5c1.907-6.373,5.244-20.432,4-35a48.463,48.463,0,0,1,1-16l9-34c.618-2.5-.467-4.925-2-7-1.425-1.93-3.994-3.158-8-2-3.213.929-4.926,2.833-6,6l-11,31s-5.717-9.971-16,0c0,0-4.093-13.725-15-5l-6-39A10.258,10.258,0,0,0,78.041,77.081Z" fill="#b19177" transform="translate(0 0)" stroke-linecap="round" stroke-linejoin="round" stroke-width="3" opacity="0.736"/>
    <path id="Path_2269" data-name="Path 2269" d="M123.831,266.951s6.051-4.731,2-20l-6-13a29.022,29.022,0,0,0,5-7,21.3,21.3,0,0,0,2-13s-2.638-7.623-7-7l-19,12s-9.493,7.83-7,24" transform="translate(-12.79 -65.87)" fill="none" stroke="#000" stroke-miterlimit="10" stroke-width="3"/>
    <line id="Line_90" data-name="Line 90" y2="12" transform="translate(107.041 129.081)" fill="none" stroke="#000" stroke-miterlimit="10" stroke-width="3"/>
    <line id="Line_91" data-name="Line 91" y2="27" transform="translate(92.041 124.081)" fill="none" stroke="#000" stroke-miterlimit="10" stroke-width="3"/>
    <path id="Path_2270" data-name="Path 2270" d="M166.283,183.146v26a10.129,10.129,0,0,1-6,9,6.01,6.01,0,0,1-6,0" transform="translate(-43.242 -54.066)" fill="none" stroke="#000" stroke-miterlimit="10" stroke-width="3"/>
  </g>
</svg>
