<svg xmlns="http://www.w3.org/2000/svg" width="101.266" height="139.276" viewBox="0 0 101.266 139.276">
  <g id="juicebox" transform="translate(-87.165 -90.612)" opacity="0.743">
    <path id="Path_2216" data-name="Path 2216" d="M98.431,122.85s-8.527,3.145-9,10c0,0-2.836,9.6,0,33,0,0,1.983,27.125,0,45-.286,2.576-.2,5.7,1,8,3.478,6.642,11.511,19.082,16,17l60-1s3.958-.261,3-6a40.111,40.111,0,0,1,0-7l2-63v-29s-3.162-8.763-19-9c0,0-16.29,2.127-30,0Z" transform="translate(0 -7.197)" fill="#ff0" stroke="#000" stroke-miterlimit="10" stroke-width="2"/>
    <path id="Path_2217" data-name="Path 2217" d="M91.167,131.661l11,12,1,22,4,73" transform="translate(-0.736 -10.008)" fill="none" stroke="#000" stroke-miterlimit="10" stroke-width="2"/>
    <path id="Path_2218" data-name="Path 2218" d="M90.038,237.226l16,17s31.473-1.945,31-1,33,0,33,0" transform="translate(-0.607 -36.573)" fill="none" stroke="#000" stroke-miterlimit="10" stroke-width="2"/>
    <path id="Path_2219" data-name="Path 2219" d="M105.9,146.716l36-1s30.454-1.945,34-1" transform="translate(-4.473 -13.063)" fill="none" stroke="#000" stroke-miterlimit="10" stroke-width="2"/>
    <path id="Path_2220" data-name="Path 2220" d="M222.126,177.064" transform="translate(-33.695 -21.411)" fill="none" stroke="#000" stroke-miterlimit="10" stroke-width="2"/>
    <path id="Path_2221" data-name="Path 2221" d="M88.515,166.3l14,11a105.537,105.537,0,0,1,28-3,65.26,65.26,0,0,0,12-1c10.079-1.555,29.034-4.22,29-3" transform="translate(-0.084 -18.642)" fill="none" stroke="#000" stroke-miterlimit="10" stroke-width="2"/>
    <path id="Path_2222" data-name="Path 2222" d="M123.882,134.582c2.391,2.575-9,4-9,4-10.4,1.892-9-3-9-3,3.386-5.034,7-4,7-4S120.809,131.272,123.882,134.582Z" transform="translate(-4.451 -9.929)" fill="#e6e6e6" stroke="#000" stroke-miterlimit="10" stroke-width="2"/>
    <g id="qPV2eu" transform="translate(107.202 92.153)">
      <path id="Path_2223" data-name="Path 2223" d="M113.9,124.653s7.036-32,12-33l26,11s2.418.927,1,4-3,1-3,1c-.237,1.537-22-9-22-9-5.318,1.654-10,27-10,27" transform="translate(-113.676 -92.153)" fill="#e6e6e6" stroke="#000" stroke-miterlimit="10" stroke-width="2"/>
    </g>
    <path id="Path_2224" data-name="Path 2224" d="M163.863,106.111a5.511,5.511,0,0,0-3,5" transform="translate(-18.432 -3.458)" fill="none" stroke="#000" stroke-miterlimit="10" stroke-width="2"/>
    <path id="Path_2225" data-name="Path 2225" d="M131.63,100.425s-5.246-.763-3-1" transform="translate(-10.199 -1.772)" fill="none" stroke="#000" stroke-miterlimit="10" stroke-width="2"/>
    <path id="Path_2226" data-name="Path 2226" d="M134.179,99.358c1.536.828-2,1-2,1l-2-1" transform="translate(-10.748 -1.705)" fill="none" stroke="#000" stroke-miterlimit="10" stroke-width="2"/>
    <line id="Line_89" data-name="Line 89" y2="3" transform="translate(121.431 96.653)" fill="none" stroke="#000" stroke-miterlimit="10" stroke-width="2"/>
    <path id="Path_2227" data-name="Path 2227" d="M145.494,224.805a16.117,16.117,0,0,1-4,1s-8.429,1.389-13-15c0,0-2.118-11.637,5-17,1.3-.978,2.386-2.2,4-2,4.184.522,14.039,2.332,20,1,1.609-.359,3.607-.882,5,0,2.935,1.859,6.71,6.334,5,17,0,0-3.4,16.219-14,16l-3-1A6.769,6.769,0,0,0,145.494,224.805Z" transform="translate(-10.063 -25.152)" fill="red" stroke="#000" stroke-miterlimit="10" stroke-width="2"/>
    <path id="Path_2228" data-name="Path 2228" d="M157.946,190.348c.315-3.67,6-8,6-8s.619,7.421-6,8" transform="translate(-17.515 -22.695)" fill="lime" stroke="#000" stroke-miterlimit="10" stroke-width="2"/>
    <path id="Path_2229" data-name="Path 2229" d="M155.866,191.561s-2.241-1.522-1-3l-1-1s-1.364.8,1,4" transform="translate(-16.435 -23.908)" fill="#c1272d" stroke="#000" stroke-miterlimit="10" stroke-width="2"/>
  </g>
</svg>
