<svg xmlns="http://www.w3.org/2000/svg" width="167.918" height="107.016" viewBox="0 0 167.918 107.016">
  <g id="mask" transform="translate(-127.615 -239.51)" opacity="0.701">
    <path id="Path_2389" data-name="Path 2389" d="M127.615,239.51" fill="none" stroke="#fe0" stroke-miterlimit="10" stroke-width="1"/>
    <path id="Path_2390" data-name="Path 2390" d="M170.776,308.563H160.465s-16.364.336-14.458,19.053c0,0,2.017,21.407,21.631,23.312l9.751.449v-2.354l-8.518-.56s-14.234,1.681-20.623-20.735c0,0-2.465-14.234,11.993-16.252L171,311.253Z" transform="translate(-9.916 -32.291)" fill="none" stroke="#1a1818" stroke-miterlimit="10" stroke-width="1"/>
    <path id="Path_2391" data-name="Path 2391" d="M248.75,359.855c-59.01,2.018-52.285-69.209-52.285-69.209s23.7,3.138,41.526-19.054c0,0,7.4-3.026,19,0,0,0,19.147,21.632,41.1,19.054,0,0,6.725,71.227-52.286,69.209" transform="translate(-32.087 -14.373)" fill="#fff" stroke="#1a1818" stroke-miterlimit="10" stroke-width="2"/>
    <path id="Path_2392" data-name="Path 2392" d="M408.246,363.089" transform="translate(-131.228 -57.788)" fill="none" stroke="#1a1818" stroke-miterlimit="10" stroke-width="2"/>
    <path id="Path_2393" data-name="Path 2393" d="M386.844,308.612h10.311s16.364.336,14.458,19.054c0,0-2.017,21.407-21.631,23.312l-9.751.448v-2.354l8.518-.56s14.234,1.681,20.623-20.735c0,0,2.465-14.234-11.992-16.251l-10.76-.224Z" transform="translate(-116.74 -32.313)" fill="none" stroke="#1a1818" stroke-miterlimit="10" stroke-width="1"/>
    <line id="Line_126" data-name="Line 126" x1="14.963" transform="translate(208.593 261.422)" fill="none" stroke="#1a1818" stroke-miterlimit="10" stroke-width="2"/>
    <path id="Path_2394" data-name="Path 2394" d="M219.721,360.578c44.047,15.635,78.175,0,78.175,0V357.72c-34.841,16.731-78.175,0-78.175,0Z" transform="translate(-43.07 -55.277)" fill="none" stroke="#1a1818" stroke-miterlimit="10" stroke-width="1"/>
    <path id="Path_2395" data-name="Path 2395" d="M228.772,383.615s29.421,26.731,67.921,0l.841,2.884s-37.323,25.7-69.6-.7Z" transform="translate(-46.91 -67.386)" fill="none" stroke="#1a1818" stroke-miterlimit="10" stroke-width="1"/>
    <path id="Path_2396" data-name="Path 2396" d="M218.685,325.789c44.048,15.636,78.176,0,78.176,0v-2.858c-34.841,16.731-78.176,0-78.176,0Z" transform="translate(-42.586 -39.009)" fill="none" stroke="#1a1818" stroke-miterlimit="10" stroke-width="1"/>
  </g>
</svg>
