<svg xmlns="http://www.w3.org/2000/svg" width="100.524" height="150.291" viewBox="0 0 100.524 150.291">
  <g id="colormushroom" transform="translate(-109.741 -155.006)" opacity="0.741">
    <path id="Path_2230" data-name="Path 2230" d="M142.75,243.686a118.8,118.8,0,0,0-13,3,13.984,13.984,0,0,1-14-4c-2.979-3.483-4.845-9.787-5-19-.115-6.772.761-13.052,4-19,7.959-14.609,27.01-46.834,41-48,0,0,13.947-3.616,21,6,0,0,6.769,14.354,11,23a25.986,25.986,0,0,0,7,9c5.231,4.427,13.976,12.532,14,17a43.1,43.1,0,0,0,0,5c1.164,8.443,1.889,30.255-19,30a34.169,34.169,0,0,0-4,0,31.015,31.015,0,0,1-16-2" transform="translate(0)" fill="#e81e26" stroke="#000" stroke-miterlimit="10" stroke-width="2"/>
    <path id="Path_2231" data-name="Path 2231" d="M192.14,234.46c5.95-2,6.8-4.608,6-7-.754-2.266-1.417-5.077,0-7a6.08,6.08,0,0,0,1-5c-.212-.733-1.5-.576-2,0-6.166,7.064-7-5-7-5-1.7-18.326-4,0-4,0,2.278,7.271-12-3-12-3-12.4-4.808-44,1-44,1-21,3.037-17,23-17,23a10.137,10.137,0,0,0,4,4c.763.488,1.1-1.054,2-1-.617-1.692.091-1.2,0-3a16.93,16.93,0,0,1,0-4" transform="translate(0.609 9.226)" fill="#fff" stroke="#000" stroke-miterlimit="10" stroke-width="2"/>
    <path id="Path_2232" data-name="Path 2232" d="M149.114,291.813s-16,2.616-16-7c0,0,13.969-25.487,6-49a17.679,17.679,0,0,1-1-9c1.22-6.388,5.97-15.33,18-11l3,2a11.42,11.42,0,0,1,6,10,55.322,55.322,0,0,0,4,19,45.248,45.248,0,0,1,3,19c-.458,7.343-2.241,16.641-6,22a20.147,20.147,0,0,0-1,2C164.376,291.171,161.782,293.567,149.114,291.813Z" transform="translate(4.635 11.873)" fill="#963" stroke="#000" stroke-miterlimit="10" stroke-width="2"/>
    <path id="Path_2233" data-name="Path 2233" d="M191.147,226.2a11.816,11.816,0,0,0-3-6c-15.413-18.844-56-10-56-10-22.016,5.06-11,26-11,26,.719,0,1.316-.778,2-1,2.976-.972,6.037.014,9-1,.5-.172,1.482-.885,2-1a17.486,17.486,0,0,1,3,0c1.018-.048,2.484-.121,3-1,1.393-2.38.148-5.377,1-8a19.176,19.176,0,0,1,2-4,11.059,11.059,0,0,1,10-5,19.613,19.613,0,0,1,8,2c2.458,1.291,5.6,2.6,7,5,1.19,2.048.887,4.633,1,7,.162,3.415.365,4.454,4,5l5,1a30.433,30.433,0,0,0,7,0c.793-.061,3.457,1.175,4,1,.975-.314,1.678-2.137,2-3C191.929,231.109,191.408,228.4,191.147,226.2Z" transform="translate(1.602 10.484)" fill="#a67c52" stroke="#000" stroke-miterlimit="10" stroke-width="2"/>
    <path id="Path_2234" data-name="Path 2234" d="M144.413,237.279s5.67,16.127-3,32" transform="translate(6.336 16.408)" fill="rgba(0,0,0,0)" stroke="#000" stroke-miterlimit="10" stroke-width="2"/>
    <path id="Path_2235" data-name="Path 2235" d="M143.985,222.41s10.6-3.654,19,8" transform="translate(6.765 13.276)" fill="rgba(0,0,0,0)" stroke="#000" stroke-miterlimit="10" stroke-width="2"/>
    <path id="Path_2236" data-name="Path 2236" d="M158.946,244.79s8.665,10.189-5,36" transform="translate(8.803 17.896)" fill="rgba(0,0,0,0)" stroke="#000" stroke-miterlimit="10" stroke-width="2"/>
    <path id="Path_2237" data-name="Path 2237" d="M146.52,282.3s9-11.9,9-20" transform="translate(7.229 21.383)" fill="rgba(0,0,0,0)" stroke="#000" stroke-miterlimit="10" stroke-width="2"/>
    <path id="Path_2238" data-name="Path 2238" d="M123.2,228.893c9.615-4.628,16-1,16-1s-3.926-4.9-10-3" transform="translate(2.548 13.793)" fill="rgba(0,0,0,0)" stroke="#000" stroke-miterlimit="10" stroke-width="1"/>
    <path id="Path_2239" data-name="Path 2239" d="M124.028,225.874c5.093-4.782,16-2,16-2s-4.914-5.6-12-4" transform="translate(2.721 12.812)" fill="rgba(0,0,0,0)" stroke="#000" stroke-miterlimit="10" stroke-width="1"/>
    <path id="Path_2240" data-name="Path 2240" d="M131.858,214.042s9.5,1.021,11,6c0,0-10.71-3.846-18-2" transform="translate(2.891 11.644)" fill="rgba(0,0,0,0)" stroke="#000" stroke-miterlimit="10" stroke-width="1"/>
    <path id="Path_2241" data-name="Path 2241" d="M133.114,210.595s7.757,1.173,9,8" transform="translate(4.635 11.091)" fill="rgba(0,0,0,0)" stroke="#000" stroke-miterlimit="10" stroke-width="1"/>
    <path id="Path_2242" data-name="Path 2242" d="M144.75,216.62s-1.087-7.23-5-6" transform="translate(6 11.066)" fill="rgba(0,0,0,0)" stroke="#000" stroke-miterlimit="10" stroke-width="1"/>
    <path id="Path_2243" data-name="Path 2243" d="M145.734,215.978s-1.5-1.486,1-7" transform="translate(7.016 10.708)" fill="rgba(0,0,0,0)" stroke="#000" stroke-miterlimit="10" stroke-width="1"/>
    <path id="Path_2244" data-name="Path 2244" d="M151.2,210.76s-5.449-.368-2,5" transform="translate(7.553 10.926)" fill="rgba(0,0,0,0)" stroke="#000" stroke-miterlimit="10" stroke-width="1"/>
    <path id="Path_2245" data-name="Path 2245" d="M159.339,210.62s-6.815.959-7,6" transform="translate(8.41 11.066)" fill="rgba(0,0,0,0)" stroke="#000" stroke-miterlimit="10" stroke-width="1"/>
    <path id="Path_2246" data-name="Path 2246" d="M170.385,216.4c.114-.076-1.735-7.413-13,3-3.789,3.5,4.43-6.709,4-7" transform="translate(9.364 11.285)" fill="rgba(0,0,0,0)" stroke="#000" stroke-miterlimit="10" stroke-width="1"/>
    <path id="Path_2247" data-name="Path 2247" d="M174.727,223.208s-15.1-.2-15,3" transform="translate(10.023 13.478)" fill="rgba(0,0,0,0)" stroke="#000" stroke-miterlimit="10" stroke-width="1"/>
    <path id="Path_2248" data-name="Path 2248" d="M172.629,226.7s-8.715-3.808-12,1" transform="translate(10.121 13.989)" fill="rgba(0,0,0,0)" stroke="#000" stroke-linecap="round" stroke-miterlimit="10" stroke-width="1"/>
    <path id="Path_2249" data-name="Path 2249" d="M164.95,217.319s-3.36-.723-6,4" transform="translate(9.799 12.367)" fill="rgba(0,0,0,0)" stroke="#000" stroke-miterlimit="10" stroke-width="1"/>
    <path id="Path_2250" data-name="Path 2250" d="M168.8,219.089s-3.414-3.069-9,5" transform="translate(9.954 12.597)" fill="rgba(0,0,0,0)" stroke="#000" stroke-miterlimit="10" stroke-width="1"/>
    <path id="Path_2251" data-name="Path 2251" d="M132.3,179.1" transform="translate(4.446 4.584)" fill="rgba(0,0,0,0)" stroke="#000" stroke-miterlimit="10" stroke-width="2"/>
    <path id="Path_2252" data-name="Path 2252" d="M125.669,193.116c.948-3.123,3.794-3.6,6-4a6.231,6.231,0,0,1,7,5c.688,2.858.161,6.255-4,8-4.6,1.93-6.781-.953-8-3A7.614,7.614,0,0,1,125.669,193.116Z" transform="translate(3.081 6.57)" fill="#fff" stroke="#000" stroke-miterlimit="10" stroke-width="2"/>
    <path id="Path_2253" data-name="Path 2253" d="M144.942,184.048a6.95,6.95,0,0,1,5-10c3.075-.489,6.823,1.008,5,8,0,0-1.419,6.258-7,5-1.275-.287-2.388-1.845-3-3Z" transform="translate(6.807 3.638)" fill="#fff" stroke="#000" stroke-miterlimit="10" stroke-width="2"/>
    <path id="Path_2254" data-name="Path 2254" d="M161.149,200.619c6.359-1.369,6.028-4.257,4-7-1.773-2.4-5.911-3.128-8-1C152.944,196.906,148.075,203.434,161.149,200.619Z" transform="translate(8.6 7.067)" fill="#fff" stroke="#000" stroke-miterlimit="10" stroke-width="2"/>
    <path id="Path_2255" data-name="Path 2255" d="M164.863,181.1c-.391,1.258-1.143,2.58,0,4,1.476,1.832,5.233,1.224,6-1,.415-1.2.069-2.519-1-4C168.35,178,165.629,178.631,164.863,181.1Z" transform="translate(10.886 4.587)" fill="#fff" stroke="#000" stroke-miterlimit="10" stroke-width="2"/>
    <path id="Path_2256" data-name="Path 2256" d="M138.624,164.973s14.078,19.827-13,15" transform="translate(3.125 1.714)" fill="#fff" stroke="#000" stroke-miterlimit="10" stroke-width="2"/>
    <path id="Path_2257" data-name="Path 2257" d="M154.149,156.621s-6.791,26.828,15,10" transform="translate(8.6 0.065)" fill="#fff" stroke="#000" stroke-miterlimit="10" stroke-width="2"/>
    <path id="Path_2258" data-name="Path 2258" d="M165.544,163.3l2,3" transform="translate(11.206 1.385)" fill="rgba(0,0,0,0)" stroke="#000" stroke-miterlimit="10" stroke-width="1"/>
    <path id="Path_2259" data-name="Path 2259" d="M167.289,165.738c.108.288-.228.792,0,1" transform="translate(11.461 1.948)" fill="rgba(0,0,0,0)" stroke="#000" stroke-miterlimit="10" stroke-width="1"/>
    <path id="Path_2260" data-name="Path 2260" d="M152.255,156.621h3" transform="translate(8.494 0.065)" fill="rgba(0,0,0,0)" stroke="#000" stroke-miterlimit="10" stroke-width="1"/>
    <path id="Path_2261" data-name="Path 2261" d="M137.623,164.168a6.391,6.391,0,0,1-2,2" transform="translate(5.126 1.518)" fill="rgba(0,0,0,0)" stroke="#000" stroke-miterlimit="10" stroke-width="1"/>
    <path id="Path_2262" data-name="Path 2262" d="M127.648,176.636l-2,2" transform="translate(3.102 4.05)" fill="rgba(0,0,0,0)" stroke="#000" stroke-miterlimit="10" stroke-width="1"/>
    <path id="Path_2263" data-name="Path 2263" d="M126.645,176.636a10.4,10.4,0,0,0-1,2" transform="translate(3.104 4.05)" fill="rgba(0,0,0,0)" stroke="#000" stroke-miterlimit="10" stroke-width="1"/>
    <path id="Path_2264" data-name="Path 2264" d="M154.8,158.314a12.41,12.41,0,0,1,7,2c2.432,1.471,4.1,2.305,5,5" transform="translate(8.952 0.372)" fill="#fff" stroke="#fff" stroke-miterlimit="10" stroke-width="2"/>
  </g>
</svg>
