<svg xmlns="http://www.w3.org/2000/svg" width="185.9" height="99.134" viewBox="0 0 185.9 99.134">
  <g id="vancolor" transform="translate(-77.831 -144.044)" opacity="0.744">
    <path id="Path_2300" data-name="Path 2300" d="M83.363,169.686s-1.4-3.832-3.643,0v11.335s1.4,3.377,3.643,0" transform="translate(0.457 18.321)" fill="gray" stroke="#000" stroke-linejoin="round" stroke-width="1"/>
    <path id="Path_2301" data-name="Path 2301" d="M83.82,185.4s-12.33,5.252,0,9.38h17.935v-5.252" transform="translate(0 31.948)" fill="gray" stroke="#000" stroke-linejoin="round" stroke-width="1"/>
    <path id="Path_2302" data-name="Path 2302" d="M91.985,149.817l17.094-5.252H240.229s14.573-1.126,13.732,29.265l.035,52.9h-11.8L232.1,209.848h-23.82L199.876,221.1H137.1L128.977,206.1H107.958l-7.566,15.384H82.457V185.646l2.522-3.563v-6.753l10.93-22.512-4.2-.374Z" transform="translate(1.363)" fill="aqua" stroke="#000" stroke-linejoin="round" stroke-width="1"/>
    <path id="Path_2303" data-name="Path 2303" d="M214.439,195.077c1.436,4.878,2.767,0,2.767,0a57.873,57.873,0,0,0,0-7.879c-.28-4.878-2.767,0-2.767,0h-10.4s-4.764,3.377,0,7.879Z" transform="translate(40.919 31.655)" fill="gray" stroke="#000" stroke-linejoin="round" stroke-width="1"/>
    <path id="Path_2304" data-name="Path 2304" d="M86.631,172.051,85.615,213.7h9.249l9.247-15.854h24.941s4.764,1.221,3.643-4.407l.17-43.523-34.641-.683Z" transform="translate(2.409 3.654)" fill="aqua" stroke="#000" stroke-linejoin="round" stroke-width="1"/>
    <path id="Path_2305" data-name="Path 2305" d="M99.007,152.352,91.72,169.611h33.628V152.352Z" transform="translate(4.43 6.095)" stroke="#000" stroke-linecap="round" stroke-linejoin="round" stroke-width="1"/>
    <path id="Path_2306" data-name="Path 2306" d="M128.675,169.611a14.018,14.018,0,0,1,0-17.259h35.87s4.484,7.129,0,17.259Z" transform="translate(15.677 6.095)" stroke="#000" stroke-linejoin="round" stroke-width="1"/>
    <path id="Path_2307" data-name="Path 2307" d="M165.587,169.611a14.018,14.018,0,0,1,0-17.259h35.869s4.485,7.129,0,17.259Z" transform="translate(27.899 6.095)" stroke="#000" stroke-linejoin="round" stroke-width="1"/>
    <line id="Line_104" data-name="Line 104" x2="7.566" transform="translate(123.894 190.714)" fill="none" stroke="#000" stroke-linejoin="round" stroke-width="1"/>
    <line id="Line_105" data-name="Line 105" x1="168.987" transform="translate(86.343 182.459)" stroke="#000" stroke-linejoin="round" stroke-width="1"/>
    <line id="Line_106" data-name="Line 106" x2="7.286" transform="translate(239.631 158.447)" fill="none" stroke="#000" stroke-linejoin="round" stroke-width="1"/>
    <line id="Line_107" data-name="Line 107" x2="7.286" transform="translate(239.631 163.7)" fill="none" stroke="#000" stroke-linejoin="round" stroke-width="1"/>
    <line id="Line_108" data-name="Line 108" x2="7.286" transform="translate(239.631 168.953)" fill="none" stroke="#000" stroke-linejoin="round" stroke-width="1"/>
    <line id="Line_109" data-name="Line 109" x2="7.286" transform="translate(239.631 173.83)" fill="none" stroke="#000" stroke-linejoin="round" stroke-width="1"/>
    <ellipse id="Ellipse_116" data-name="Ellipse 116" cx="11.91" cy="15.946" rx="11.91" ry="15.946" transform="translate(107.64 210.787)" stroke="#000" stroke-linejoin="round" stroke-width="1"/>
    <ellipse id="Ellipse_117" data-name="Ellipse 117" cx="11.91" cy="15.946" rx="11.91" ry="15.946" transform="translate(209.878 210.787)" stroke="#000" stroke-linejoin="round" stroke-width="1"/>
    <ellipse id="Ellipse_118" data-name="Ellipse 118" cx="5.465" cy="7.316" rx="5.465" ry="7.316" transform="translate(114.086 219.416)" fill="#999" stroke="#000" stroke-linejoin="round" stroke-width="1"/>
    <ellipse id="Ellipse_119" data-name="Ellipse 119" cx="5.465" cy="7.316" rx="5.465" ry="7.316" transform="translate(216.324 219.416)" fill="#999" stroke="#000" stroke-linejoin="round" stroke-width="1"/>
    <path id="Path_2308" data-name="Path 2308" d="M217.615,152.352" transform="translate(46.116 6.095)" fill="none" stroke="#000" stroke-linejoin="round" stroke-width="1"/>
    <path id="Path_2309" data-name="Path 2309" d="M209.457,193.168" transform="translate(43.414 38.02)" fill="gray" stroke="#000" stroke-linejoin="round" stroke-width="1"/>
    <path id="Path_2310" data-name="Path 2310" d="M92.563,149.194H245.835l1.652.066" transform="translate(4.709 3.625)" fill="#ed1e79" stroke="#000" stroke-linejoin="round" stroke-width="1"/>
  </g>
</svg>
